<?xml version="1.0" encoding="UTF-8"?>
<svg id="Ebene_1" data-name="Ebene 1" xmlns="http://www.w3.org/2000/svg" viewBox="0 0 50 50">
  <defs>
    <style>
      .cls-1 {
        fill: #ffd500;
      }
    </style>
  </defs>
  <path class="cls-1" d="m25.15,7.84c-.91.57-1.84,1.12-2.76,1.67-1.3.47-3,.37-4.03,1.41-.88.86-.94,2.42-1.19,3.61-1.25,5.71,2.44,8.92,6.94,11.98,0,.78.31.52,1.04.52,0-2.32-4.53-4.48-4.68-8.3,4.74,0,7.7-1.87,8.31,4.67h1.04c.27-1.56.55-3.13.83-4.7.34-4.34-1.28-9.71-5.51-10.86Zm-14.55,14.01c-.5,1.28-1.01,2.55-1.51,3.81-.81,1.1-2.14,1.77-2.47,3.13-.32,1.23.16,2.52.71,3.5,2.34,4.23,5.93,2.64,10.02,2.01,0-1.14-1.31-1.64-2.08-2.07-.45-2.05-1.33-6.89,3.12-5.71,0-.16,1.28-.31.52-1.56-1.98,0-5.25-2.82-8.32-3.12ZM41.01,2.13H10.85c-4.26,0-7.71,3.45-7.71,7.71v30.15c0,4.26,3.46,7.71,7.71,7.71h30.16c4.26,0,7.71-3.45,7.71-7.71V9.84c0-4.26-3.45-7.71-7.71-7.71Zm6.26,15.73c-.46-.07-.91-.12-1.33-.16,0-3.32-3.43-4.49-6.24-4.67-3.87,3.41-7.17,7.27-7.8,12.45h.52c0-.16,1.13-3.4,4.16-4.67,1.22.36,2.42.7,3.64,1.04,0,1.53-1.04,2.65-2.08,3.63,0,1.27,2.19,2.45,3.12,3.11v1.56c-.16,0,.84,2.34-7.28,0,0,.18-.42.71-.07,1.07,3.05,3.05,9.21,3.57,13.35,1.96v6.69c0,1.31-.4,2.53-1.07,3.54-1.57-3.43-11.03-8.48-13.77-9.12,1.88,2.63,4.14,4.36,6.76,6.23v1.04c-2.32,0-3.69,1.83-5.2-.52h-.52c-.16.88-.34,1.73-.52,2.59h-1.04c-.36-1.05-1.51-.64-2.08-5.71-.8,0-.68.36-.76,1.07-.27,1.97.09,4.97.95,7.28h-3.83c.54-3.21.4-6.69-.51-7.84-.52,1.91-1.04,3.81-1.56,5.71-.93,0-1.25-.91-1.56-1.55-1.06,0-1.75.63-2.6,1.04,0-1.38-1.14-2.33-2.08-3.12v-1.03c.34,0,3.75-3.15,4.68-3.63,0-.16-1.51-1.44-2.08-1.56-2.71,2.13-6.63,3.94-8.4,7.01-1.27,2.15-1.27,3.71-.6,4.98h-.6c-3.54,0-6.42-2.87-6.42-6.41V9.96c0-3.54,2.88-6.41,6.42-6.41h29.97c3.54,0,6.42,2.87,6.42,6.41v7.9Z"/>
</svg>